<?xml version="1.0" standalone="no"?>
<!DOCTYPE svg PUBLIC "-//W3C//DTD SVG 20010904//EN"
 "http://www.w3.org/TR/2001/REC-SVG-20010904/DTD/svg10.dtd">
<svg version="1.0" xmlns="http://www.w3.org/2000/svg"
 width="365.000000pt" height="365.000000pt" viewBox="0 0 365.000000 365.000000"
 preserveAspectRatio="xMidYMid meet">
<metadata>
Created by potrace 1.11, written by Peter Selinger 2001-2013
</metadata>
<g transform="translate(0.000000,365.000000) scale(0.100000,-0.100000)"
fill="#000000" stroke="none">
<path d="M1079 2695 l-134 -134 -29 25 -29 26 83 83 c46 47 81 88 77 92 -4 4
-47 -32 -95 -80 -65 -64 -96 -88 -121 -92 -48 -8 -69 -21 -86 -55 -27 -52 -16
-107 28 -142 20 -16 19 -17 -48 -47 -38 -18 -76 -38 -85 -46 -15 -14 -19 -12
-42 20 l-24 35 -62 -89 c-58 -85 -67 -106 -36 -94 26 10 14 -10 -35 -57 l-48
-46 -11 25 c-10 25 -10 24 -9 -10 1 -30 -7 -46 -42 -85 -24 -27 -49 -61 -57
-76 -8 -16 -18 -28 -22 -28 -4 0 -8 -9 -9 -21 -1 -11 -9 -32 -18 -46 -13 -19
-19 -22 -31 -13 -16 14 -10 30 12 30 8 0 14 9 14 20 0 11 -4 20 -10 20 -5 0
-7 -6 -4 -14 7 -18 -25 -29 -42 -15 -12 9 -13 6 -8 -20 7 -32 -10 -43 -33 -20
-7 7 -10 2 -9 -19 1 -27 3 -29 28 -21 19 5 32 3 42 -6 7 -8 17 -11 21 -7 5 4
5 1 1 -6 -4 -7 -12 -10 -17 -7 -16 11 -9 -7 8 -21 11 -8 13 -13 5 -14 -7 0 -4
-8 8 -20 12 -12 18 -25 15 -30 -4 -6 -1 -10 6 -10 7 0 10 -3 6 -6 -3 -3 9 -20
26 -37 l32 -31 1 -126 c0 -70 4 -132 8 -138 17 -29 26 6 26 106 0 120 5 137
34 117 15 -12 18 -29 20 -107 1 -75 4 -93 16 -93 12 0 15 16 15 83 0 87 2 90
50 72 25 -9 62 -18 115 -25 38 -6 142 -6 170 -1 14 2 48 7 75 11 28 3 61 9 75
12 18 4 -11 -31 -110 -130 -73 -75 -131 -139 -128 -142 3 -4 71 58 150 138 78
79 152 147 162 151 19 7 19 6 1 -14 -14 -15 -15 -20 -4 -20 8 0 20 9 27 20 10
16 17 18 30 11 10 -6 41 -13 68 -16 44 -6 52 -11 72 -45 25 -43 93 -103 137
-120 42 -16 63 -20 120 -22 l50 -1 31 -63 31 -63 -53 -52 c-29 -29 -50 -57
-47 -62 3 -5 31 17 63 48 32 32 60 52 64 47 3 -6 -3 -17 -15 -25 -14 -10 -17
-17 -9 -22 6 -4 19 0 29 9 16 14 22 13 82 -19 136 -72 289 -85 385 -31 l45 25
47 -20 c91 -40 229 -41 304 -3 71 37 107 99 112 195 5 85 20 111 94 165 36 27
71 55 78 62 11 10 21 1 54 -48 22 -33 44 -60 49 -60 4 0 21 20 37 45 l28 45
75 2 c89 1 82 0 148 18 59 15 134 68 228 159 34 34 65 61 67 61 8 0 19 -191
18 -317 0 -90 3 -113 14 -113 21 0 24 42 19 273 -3 151 -1 212 7 222 7 8 16
13 20 10 4 -2 8 -73 9 -157 2 -144 9 -186 26 -158 4 7 8 94 9 193 2 129 6 182
14 185 7 2 10 8 7 13 -4 5 2 6 11 2 12 -4 15 -3 10 5 -4 7 3 14 19 18 13 3 22
10 19 15 -5 9 9 13 35 9 13 -1 13 1 2 14 -8 9 -9 16 -4 16 11 0 10 179 -1 231
-6 28 -25 52 -78 100 -39 35 -80 64 -92 64 -11 1 -46 8 -76 17 -30 9 -67 19
-81 22 -15 3 -29 14 -31 24 -6 22 -48 23 -57 1 -3 -8 -19 -14 -36 -15 -60 -2
-186 -20 -269 -39 l-58 -13 48 49 c73 74 43 72 -34 -2 -50 -49 -82 -72 -127
-88 -32 -12 -57 -19 -53 -16 3 3 0 27 -6 52 -12 46 -12 47 24 79 19 18 32 36
27 40 -4 4 -23 -8 -42 -26 -19 -19 -35 -29 -35 -24 0 6 -13 24 -29 40 -22 21
-27 32 -19 42 14 16 1 29 -14 14 -9 -9 -15 -8 -27 2 -23 21 -117 56 -149 56
-15 0 -40 11 -56 25 -104 89 -302 127 -406 76 l-44 -21 -71 37 c-38 20 -71 36
-73 34 -1 -1 -17 1 -35 4 -43 7 -89 13 -105 14 -10 1 -8 8 6 29 10 15 21 32
25 37 4 7 -14 11 -49 10 -30 0 -54 -3 -54 -6 0 -3 11 -20 25 -39 14 -19 25
-35 25 -36 0 0 -12 -1 -27 -1 -101 2 -252 -66 -302 -135 -7 -11 -24 -23 -37
-28 -13 -5 -24 -17 -24 -26 0 -13 -106 -144 -135 -167 -5 -4 -19 -5 -30 -2
-11 3 -50 8 -87 11 l-67 7 24 29 c23 27 30 49 26 89 -1 8 22 38 51 66 131 126
229 231 221 236 -5 3 -70 -54 -144 -128z"/>
<path d="M1132 2679 c-49 -49 -62 -69 -44 -69 9 0 112 105 112 114 0 16 -21 2
-68 -45z"/>
<path d="M2956 2669 c-14 -11 -26 -24 -26 -29 0 -5 11 2 25 16 14 14 30 22 37
18 7 -4 8 -3 4 4 -9 15 -9 16 -40 -9z"/>
<path d="M3035 2664 c17 -16 32 -28 34 -27 7 4 -21 34 -43 45 -14 7 -11 2 9
-18z"/>
<path d="M2639 2618 c-1 -2 -3 -15 -5 -30 -3 -26 0 -28 30 -28 29 0 32 3 32
30 0 26 -3 30 -28 30 -15 0 -29 -1 -29 -2z"/>
<path d="M2931 2573 c7 -12 15 -20 18 -17 3 2 -3 12 -13 22 -17 16 -18 16 -5
-5z"/>
<path d="M3032 2578 c-7 -7 -12 -18 -12 -25 0 -7 -6 -13 -12 -13 -7 -1 2 -7
21 -16 32 -13 36 -13 52 3 34 36 -14 86 -49 51z"/>
<path d="M3376 2515 c-20 -20 -20 -29 0 -49 20 -20 29 -20 49 0 14 14 14 19 2
37 -18 28 -32 31 -51 12z"/>
<path d="M3556 2363 c-3 -4 10 -21 31 -39 40 -35 48 -36 39 -7 -7 21 -60 56
-70 46z"/>
<path d="M323 2110 c-13 -5 -23 -17 -23 -26 0 -10 5 -14 14 -11 8 3 17 1 20
-6 3 -7 3 -2 0 10 -3 14 1 25 13 32 22 13 6 13 -24 1z"/>
<path d="M238 2093 c7 -3 16 -2 19 1 4 3 -2 6 -13 5 -11 0 -14 -3 -6 -6z"/>
<path d="M180 2080 c13 -8 12 -11 -5 -24 -11 -9 -26 -16 -32 -16 -15 0 -18
-20 -4 -20 6 0 13 5 16 10 3 6 17 10 31 10 28 0 34 34 8 44 -23 9 -31 7 -14
-4z"/>
<path d="M50 2050 c0 -7 -7 -9 -17 -5 -14 5 -15 3 -6 -5 7 -8 17 -9 28 -2 12
6 14 11 6 16 -6 4 -11 2 -11 -4z"/>
<path d="M185 2020 c4 -6 11 -8 16 -5 14 9 11 15 -7 15 -8 0 -12 -5 -9 -10z"/>
<path d="M118 1993 c7 -3 16 -2 19 1 4 3 -2 6 -13 5 -11 0 -14 -3 -6 -6z"/>
<path d="M40 1976 c0 -9 5 -16 10 -16 6 0 10 4 10 9 0 6 -4 13 -10 16 -5 3
-10 -1 -10 -9z"/>
<path d="M181 1976 c-8 -10 -9 -16 -1 -21 21 -13 10 -26 -12 -14 -23 12 -23
12 -4 -10 13 -14 15 -21 6 -21 -7 0 -10 -3 -7 -7 9 -9 48 27 41 38 -3 5 2 9
10 9 14 0 32 18 25 24 -15 13 -48 14 -58 2z"/>
<path d="M100 1940 c0 -5 5 -10 11 -10 5 0 7 5 4 10 -3 6 -8 10 -11 10 -2 0
-4 -4 -4 -10z"/>
<path d="M230 1940 c0 -5 5 -10 10 -10 6 0 10 5 10 10 0 6 -4 10 -10 10 -5 0
-10 -4 -10 -10z"/>
<path d="M3590 1890 c0 -5 5 -10 11 -10 5 0 7 5 4 10 -3 6 -8 10 -11 10 -2 0
-4 -4 -4 -10z"/>
<path d="M3560 1855 c7 -8 17 -12 22 -9 6 4 5 10 -3 15 -22 14 -33 10 -19 -6z"/>
<path d="M140 1780 c0 -5 7 -10 16 -10 8 0 12 5 9 10 -3 6 -10 10 -16 10 -5 0
-9 -4 -9 -10z"/>
<path d="M147 1749 c7 -7 15 -10 18 -7 3 3 -2 9 -12 12 -14 6 -15 5 -6 -5z"/>
<path d="M110 1731 c0 -6 4 -13 10 -16 6 -3 7 1 4 9 -7 18 -14 21 -14 7z"/>
<path d="M35 1640 c-3 -5 -1 -10 4 -10 6 0 11 5 11 10 0 6 -2 10 -4 10 -3 0
-8 -4 -11 -10z"/>
<path d="M3291 1558 c-8 -13 -20 -32 -28 -44 -12 -18 -9 -26 20 -68 l34 -47
26 40 c36 54 36 53 7 100 -28 47 -39 50 -59 19z"/>
<path d="M1116 1491 c-3 -5 1 -11 9 -15 9 -3 15 0 15 9 0 16 -16 20 -24 6z"/>
<path d="M1116 1412 c-3 -6 -1 -14 5 -17 15 -10 25 3 12 16 -7 7 -13 7 -17 1z"/>
<path d="M2700 1376 c0 -8 4 -17 8 -20 13 -8 35 11 28 23 -10 16 -36 14 -36
-3z"/>
<path d="M1117 1324 c-8 -8 1 -24 14 -24 5 0 9 7 9 15 0 15 -12 20 -23 9z"/>
<path d="M2768 1292 c-10 -2 -19 -9 -19 -15 -1 -7 -3 -21 -4 -32 -1 -11 -3
-27 -3 -36 -1 -9 -10 -16 -19 -15 -11 0 -19 -7 -21 -20 -2 -14 14 -36 52 -72
30 -29 59 -52 64 -52 5 0 35 25 66 55 52 51 69 83 46 86 -5 1 -15 2 -22 3 -7
0 -14 20 -16 46 -2 25 -6 47 -8 49 -5 5 -94 8 -116 3z"/>
<path d="M824 1268 c1 -16 7 -23 21 -23 28 0 27 39 -1 43 -17 2 -21 -2 -20
-20z"/>
<path d="M1116 1242 c-3 -6 -1 -14 5 -17 15 -10 25 3 12 16 -7 7 -13 7 -17 1z"/>
<path d="M3084 1224 c3 -9 6 -18 6 -20 0 -3 9 0 20 6 24 13 17 30 -12 30 -14
0 -18 -5 -14 -16z"/>
<path d="M1117 1154 c-8 -8 1 -24 14 -24 5 0 9 7 9 15 0 15 -12 20 -23 9z"/>
<path d="M1117 1064 c-8 -8 1 -24 14 -24 5 0 9 7 9 15 0 15 -12 20 -23 9z"/>
<path d="M1098 999 c-22 -12 -23 -52 -3 -69 19 -16 45 -9 62 17 13 19 12 24
-6 42 -24 24 -29 25 -53 10z"/>
<path d="M1278 983 c-8 -14 -3 -121 5 -130 14 -14 129 -11 134 4 7 17 49 17
56 -1 6 -14 37 -16 38 -3 1 4 -9 37 -22 73 -31 86 -53 86 -88 -4 -13 -34 -27
-58 -30 -53 -3 5 -17 11 -31 12 -23 4 -25 8 -25 54 0 38 -4 50 -17 53 -9 2
-18 -1 -20 -5z m176 -82 c-8 -9 -22 12 -17 26 6 15 7 14 13 -3 4 -10 6 -21 4
-23z"/>
<path d="M3388 966 c-10 -7 -18 -22 -17 -32 0 -17 1 -16 9 3 5 13 16 20 27 19
10 -2 12 -1 5 1 -7 3 -10 9 -7 14 8 12 3 11 -17 -5z"/>
<path d="M1572 948 c-7 -7 -12 -19 -11 -27 0 -10 4 -7 9 7 10 24 38 29 60 10
12 -11 12 -10 1 5 -16 20 -42 22 -59 5z"/>
<path d="M1671 946 c-15 -18 -23 -59 -10 -51 5 4 7 10 4 14 -2 5 1 16 9 26 9
12 19 15 35 10 21 -6 23 -12 18 -52 -3 -28 -1 -40 4 -32 16 26 10 78 -10 89
-26 13 -36 13 -50 -4z"/>
<path d="M1763 942 c1 -12 5 -22 9 -22 5 0 13 -11 20 -25 11 -24 28 -25 28 -3
0 6 -3 8 -7 4 -4 -4 -17 10 -30 31 -17 28 -22 32 -20 15z"/>
<path d="M1883 948 c-5 -7 -6 -33 -2 -58 l6 -45 1 52 c2 40 6 53 20 56 14 4
14 5 1 6 -9 0 -21 -5 -26 -11z"/>
<path d="M1930 956 c0 -4 7 -14 15 -22 8 -9 15 -11 15 -6 0 5 -7 15 -15 22 -8
7 -15 9 -15 6z"/>
<path d="M1975 951 c-8 -14 -2 -70 7 -65 4 3 5 17 2 31 -4 16 -2 28 7 34 9 6
10 9 2 9 -6 0 -14 -4 -18 -9z"/>
<path d="M2016 948 c3 -5 10 -6 15 -3 13 9 11 12 -6 12 -8 0 -12 -4 -9 -9z"/>
<path d="M2065 950 c28 -12 37 -12 30 0 -3 6 -16 10 -28 9 -21 0 -21 -1 -2 -9z"/>
<path d="M2110 949 c0 -5 5 -7 10 -4 6 3 10 8 10 11 0 2 -4 4 -10 4 -5 0 -10
-5 -10 -11z"/>
<path d="M2176 952 c-2 -4 7 -9 20 -10 15 -1 22 2 19 8 -7 12 -32 13 -39 2z"/>
<path d="M2290 945 c-6 -8 -10 -20 -7 -27 3 -8 6 -6 6 5 1 10 11 22 24 27 15
6 17 9 6 9 -9 1 -22 -6 -29 -14z"/>
<path d="M2346 947 c3 -10 9 -15 12 -12 3 3 0 11 -7 18 -10 9 -11 8 -5 -6z"/>
<path d="M2386 945 c-9 -24 -8 -28 9 -21 8 3 15 2 15 -2 0 -4 13 -23 30 -42
l29 -35 0 30 c0 23 -2 26 -8 11 -6 -16 -12 -11 -38 29 -23 36 -32 43 -37 30z"/>
<path d="M2528 935 c-3 -14 -2 -27 1 -30 4 -2 8 10 9 26 3 36 -4 38 -10 4z"/>
<path d="M2568 948 c12 -6 22 -15 22 -20 0 -4 6 -8 13 -8 6 1 1 10 -12 20 -13
11 -28 20 -35 19 -6 0 -1 -5 12 -11z"/>
<path d="M2625 950 c-3 -5 -1 -10 4 -10 6 0 11 5 11 10 0 6 -2 10 -4 10 -3 0
-8 -4 -11 -10z"/>
<path d="M2656 948 c3 -4 11 -5 19 -1 21 7 19 12 -4 10 -11 0 -18 -5 -15 -9z"/>
<path d="M2833 945 c-3 -9 -3 -19 1 -22 3 -4 6 1 6 11 0 9 5 14 10 11 6 -3 10
-1 10 4 0 17 -20 13 -27 -4z"/>
<path d="M2878 953 c7 -3 16 -2 19 1 4 3 -2 6 -13 5 -11 0 -14 -3 -6 -6z"/>
<path d="M3030 932 l22 -33 -23 -27 -23 -27 24 22 24 23 25 -23 25 -22 -22 29
c-18 23 -20 32 -10 45 10 13 10 14 -2 3 -12 -10 -18 -7 -38 15 l-24 28 22 -33z"/>
<path d="M3270 940 c0 -11 2 -20 4 -20 2 0 6 9 9 20 3 11 1 20 -4 20 -5 0 -9
-9 -9 -20z"/>
<path d="M3318 948 c28 -14 31 -72 5 -87 -10 -6 -13 -11 -7 -11 36 -1 48 82
15 100 -11 5 -23 10 -28 9 -4 0 2 -5 15 -11z"/>
<path d="M3462 948 c-13 -13 -17 -88 -4 -88 4 0 7 19 7 42 0 43 0 43 34 41 24
-1 30 1 20 8 -20 12 -43 11 -57 -3z"/>
<path d="M1833 930 c-11 -16 -10 -18 1 -14 15 6 30 34 18 34 -4 0 -13 -9 -19
-20z"/>
<path d="M2251 934 c0 -11 3 -14 6 -6 3 7 2 16 -1 19 -3 4 -6 -2 -5 -13z"/>
<path d="M2462 930 c0 -14 2 -19 5 -12 2 6 2 18 0 25 -3 6 -5 1 -5 -13z"/>
<path d="M2798 927 c-3 -13 -1 -32 2 -43 5 -13 8 -5 8 24 1 47 -3 54 -10 19z"/>
<path d="M2917 937 c-3 -8 -2 -20 3 -26 5 -9 8 -4 8 13 0 29 -3 32 -11 13z"/>
<path d="M2992 925 c0 -16 2 -22 5 -12 2 9 2 23 0 30 -3 6 -5 -1 -5 -18z"/>
<path d="M3149 912 c23 -54 36 -69 44 -48 4 10 1 13 -7 10 -8 -3 -16 4 -19 18
-4 13 -13 32 -22 43 -11 15 -10 8 4 -23z"/>
<path d="M3233 935 c0 -8 4 -15 9 -15 4 0 8 4 8 9 0 6 -4 12 -8 15 -5 3 -9 -1
-9 -9z"/>
<path d="M3203 923 c-3 -10 -8 -22 -11 -27 -3 -5 0 -6 5 -3 11 7 25 47 17 47
-3 0 -7 -8 -11 -17z"/>
<path d="M3529 928 c-5 -18 -6 -38 -1 -34 7 8 12 36 6 36 -2 0 -4 -1 -5 -2z"/>
<path d="M1761 894 c0 -11 3 -14 6 -6 3 7 2 16 -1 19 -3 4 -6 -2 -5 -13z"/>
<path d="M1848 887 c-3 -19 -2 -25 4 -19 6 6 8 18 6 28 -3 14 -5 12 -10 -9z"/>
<path d="M1930 900 c-13 -8 -12 -10 3 -10 9 0 17 5 17 10 0 12 -1 12 -20 0z"/>
<path d="M2083 891 c0 -11 5 -18 9 -15 4 3 5 11 1 19 -7 21 -12 19 -10 -4z"/>
<path d="M2251 894 c0 -11 3 -14 6 -6 3 7 2 16 -1 19 -3 4 -6 -2 -5 -13z"/>
<path d="M2627 903 c-10 -10 -8 -23 4 -23 5 0 8 4 5 9 -4 5 0 12 6 14 7 3 8 6
2 6 -6 1 -14 -2 -17 -6z"/>
<path d="M2830 893 c0 -11 3 -14 8 -7 4 6 14 14 22 17 10 4 8 6 -7 6 -16 1
-23 -5 -23 -16z"/>
<path d="M3271 894 c0 -11 3 -14 6 -6 3 7 2 16 -1 19 -3 4 -6 -2 -5 -13z"/>
<path d="M3370 903 c0 -5 11 -8 24 -8 13 0 22 3 19 8 -2 4 -13 7 -24 7 -10 0
-19 -3 -19 -7z"/>
<path d="M2280 889 c0 -35 51 -57 72 -32 15 18 20 45 7 37 -5 -3 -7 -9 -4 -14
6 -10 -16 -26 -35 -26 -8 1 -20 12 -27 26 -8 16 -13 19 -13 9z"/>
<path d="M900 874 c-11 -12 -10 -18 3 -31 8 -9 23 -13 31 -10 21 8 21 43 0 51
-21 8 -20 8 -34 -10z"/>
<path d="M2195 881 c-3 -5 -2 -12 3 -15 5 -3 9 1 9 9 0 17 -3 19 -12 6z"/>
<path d="M2525 881 c-7 -12 24 -43 36 -36 5 4 9 9 9 12 0 4 -3 3 -7 0 -9 -9
-34 13 -27 24 3 5 3 9 0 9 -3 0 -7 -4 -11 -9z"/>
<path d="M2915 880 c3 -5 8 -10 11 -10 2 0 4 5 4 10 0 6 -5 10 -11 10 -5 0 -7
-4 -4 -10z"/>
<path d="M2982 869 c-9 -14 -20 -19 -34 -16 -15 4 -18 3 -10 -5 14 -14 62 8
62 29 0 18 -3 17 -18 -8z"/>
<path d="M3236 875 c4 -8 8 -15 10 -15 2 0 4 7 4 15 0 8 -4 15 -10 15 -5 0 -7
-7 -4 -15z"/>
<path d="M1569 860 c28 -24 32 -24 57 -4 18 15 18 15 -3 5 -22 -11 -53 -5 -53
10 0 5 -6 9 -12 9 -7 -1 -2 -10 11 -20z"/>
<path d="M1650 876 c0 -2 7 -9 15 -16 13 -11 14 -10 9 4 -5 14 -24 23 -24 12z"/>
<path d="M2141 864 c0 -11 3 -14 6 -6 3 7 2 16 -1 19 -3 4 -6 -2 -5 -13z"/>
<path d="M2586 864 c-5 -14 -4 -15 9 -4 17 14 19 20 6 20 -5 0 -12 -7 -15 -16z"/>
<path d="M2741 864 c0 -11 3 -14 6 -6 3 7 2 16 -1 19 -3 4 -6 -2 -5 -13z"/>
<path d="M3365 871 c-3 -6 4 -15 15 -21 23 -12 26 -5 6 16 -9 8 -17 10 -21 5z"/>
<path d="M3512 864 c-7 -8 -8 -14 -3 -14 10 0 25 19 20 25 -2 1 -10 -3 -17
-11z"/>
<path d="M1755 860 c3 -5 8 -10 11 -10 2 0 4 5 4 10 0 6 -5 10 -11 10 -5 0 -7
-4 -4 -10z"/>
<path d="M1970 862 c0 -15 28 -23 36 -9 4 7 4 9 -1 5 -4 -4 -14 -3 -22 3 -8 7
-13 8 -13 1z"/>
<path d="M2830 861 c0 -5 7 -11 15 -15 8 -3 15 -1 15 3 0 5 -7 11 -15 15 -8 3
-15 1 -15 -3z"/>
<path d="M3270 861 c0 -5 7 -11 15 -15 8 -3 15 -1 15 3 0 5 -7 11 -15 15 -8 3
-15 1 -15 -3z"/>
<path d="M2020 849 c0 -5 5 -7 10 -4 6 3 10 8 10 11 0 2 -4 4 -10 4 -5 0 -10
-5 -10 -11z"/>
<path d="M2646 851 c8 -8 44 -8 44 1 0 4 -11 7 -25 6 -13 -1 -22 -4 -19 -7z"/>
<path d="M3415 850 c3 -5 8 -10 11 -10 2 0 4 5 4 10 0 6 -5 10 -11 10 -5 0 -7
-4 -4 -10z"/>
</g>
</svg>
